<svg version="1.1" xmlns="http://www.w3.org/2000/svg" viewBox="0 0 385.031 80.674">
					<g>
						<path d="M41.999,59.295l3.257,7.922c0,0,5.643,11.612-2.823,11.612v1.845h31.039v-1.845c-2.821-0.217-5.427,0.76-9.115-7.922
							c0,0-1.738-4.624-28.327-68.436c0,0-8.108,13.101-5.887,27.483c0.585,3.79,11.205,27.496,11.205,27.496"></path>
						<path d="M12.186,68.763c0,0-2.46,9.947,8.24,9.947v1.963H0v-1.845c2.602-0.2,5.831-0.122,10.189-10.113L12.186,68.763z"></path>
						<path d="M28.155,25.665"></path>
					</g>
					<g>
						<path d="M123.371,78.496v1.832h-22.182v-1.832c4.086-1.184,4.305-5.703,4.305-11.196V12.814c0-3.766-1.078-5.383-5.383-6.997V3.985
							L118.952,0v67.3C118.952,73.223,119.496,77.527,123.371,78.496z M131.572,50.958c15.931,22.502,16.13,22.155,16.13,22.155
							c3.551,4.954,8.399,5.278,10.232,5.383v1.832h-15.185c-7.426,0-8.399-1.938-15.606-12.704c-3.235-4.739-2.787-6.749-2.394-9.02
							c0.946-5.468,5.468-9.415,5.468-9.415 M137.793,39.588c3.923-3.813,1.426-7.038-5.163-7.174v-1.832h24.103v1.832
							c-1.687,0.187-6.691-0.82-17.302,8.554"></path>
						<path d="M195.417,34.356c-1.494,1.706,0.503,2.416,0.892,2.472c1.613,0.215,3.016,0.969,3.989,2.367
							c1.929,2.801,1.175,6.567-1.622,8.509c-2.797,1.828-6.567,1.184-8.505-1.618c-1.289-2.047-1.313-4.729-0.324-6.462
							C191.865,35.833,195.417,34.356,195.417,34.356z"></path>
						<path d="M279.592,44.794V67.19c0,6.032,0.535,10.232,4.41,11.306v1.832h-22.287v-1.832c4.2-1.289,4.305-5.703,4.305-11.306V43.286
							c0-3.66-0.964-5.274-5.383-7.536v-1.828l18.956-4.309v12.169 M292.288,30.152c2.377-0.962,6.357-0.539,8.733,1.398
							c3.332,2.906,3.656,8.075,0.754,11.306c-2.911,3.34-7.865,3.77-11.31,0.864c-1.613-1.508-2.472-3.34-2.472-5.278
							c0-0.465,0.454-2.221-1.976-0.953C286.016,37.488,287.68,31.815,292.288,30.152z"></path>
						<path d="M356.088,77.75c-3.154,1.808-5.169,2.547-8.196,2.547c-8.513,0-13.572-3.555-13.572-16.474V40.782
							c0-6.462,0.21-7.431-6.032-8.294V30.66l19.385-2.047v34.886c0,14.005,1.382,13.301,7.48,11.967 M366.084,65.436V41.102
							c0-6.567,0.43-7.965-5.059-8.614V30.66l18.517-2.047v40.809c0,5.168,0.964,5.602,5.489,6.137v1.832L369.1,80.188
							c-2.902,0.434-3.016-2.043-3.016-2.043v-9.478"></path>
					</g>
					<g>
						<path d="M234.755,71.917c-0.649,1.832-2.911,1.832-2.911,1.832c-5.278,0-5.173-7.54-5.173-7.54v-16.04
							c0-12.709-3.875-21.538-17.974-21.538l0.126,1.92c5.279,0.675,4.284,5.247,4.284,14.555v1.723h0c0,0,0.105,22.347,0.105,24.769
							c0.089,8.212,10.775,8.719,10.775,8.719c6.777,0,11.731-4.2,12.59-7.645L234.755,71.917z"></path>
						<path d="M207.993,73.649c-0.529,0.156-1.555,0.646-2.912,1.078c-6.239,1.985-8.916-3.168-9.086-6.496
							c-0.206-4.029,1.768-9.538,8.504-12.178l-0.064-1.913c-10.208,2.189-19.217,3.999-19.217,15.196
							c0,10.981,12.38,10.981,12.38,10.981c5.387,0.166,8.117-2.442,11.019-5.25L207.993,73.649z"></path>
					</g>
				</svg>
